<?xml version="1.0" encoding="utf-8"?>
<!-- Generator: Adobe Illustrator 16.0.0, SVG Export Plug-In . SVG Version: 6.00 Build 0)  -->
<!DOCTYPE svg PUBLIC "-//W3C//DTD SVG 1.1//EN" "http://www.w3.org/Graphics/SVG/1.1/DTD/svg11.dtd">
<svg version="1.1" id="Layer_1" xmlns="http://www.w3.org/2000/svg" xmlns:xlink="http://www.w3.org/1999/xlink" x="0px" y="0px"
	 width="140px" height="105px" viewBox="0 0 140 105" enable-background="new 0 0 140 105" xml:space="preserve">
<g>
	<path d="M70.827,65.352V52.92c0-0.84-0.521-1.512-1.174-1.512h-2.349c-0.653,0-1.175,0.672-1.175,1.512v7.813H36.963V23.268H66.13
		v7.896c0,0.84,0.522,1.512,1.175,1.512h2.349c0.652,0,1.174-0.672,1.174-1.512V18.648c0-0.84-0.521-1.512-1.174-1.512H33.375
		c-0.652,0-1.174,0.672-1.174,1.512v46.704c0,0.84,0.522,1.513,1.174,1.513h36.279C70.306,66.864,70.827,66.191,70.827,65.352z"/>
	<path d="M76.766,29.568c-0.457,0.588-0.457,1.596,0,2.184l5.611,7.224H42.966c-0.652,0-1.175,0.672-1.175,1.512v3.024
		c0,0.84,0.522,1.512,1.175,1.512h39.28l-5.61,7.224c-0.457,0.588-0.457,1.596,0,2.184l1.695,2.185c0.457,0.588,1.24,0.588,1.696,0
		l10.571-13.608c0.456-0.588,0.456-1.596,0-2.184l-10.506-13.44c-0.457-0.588-1.239-0.588-1.696,0L76.766,29.568z"/>
</g>
</svg>
