<?xml version="1.0" encoding="UTF-8" standalone="no"?>
<!-- Generator: Adobe Illustrator 16.0.0, SVG Export Plug-In . SVG Version: 6.00 Build 0)  -->

<svg
   xmlns:dc="http://purl.org/dc/elements/1.1/"
   xmlns:cc="http://creativecommons.org/ns#"
   xmlns:rdf="http://www.w3.org/1999/02/22-rdf-syntax-ns#"
   xmlns:svg="http://www.w3.org/2000/svg"
   xmlns="http://www.w3.org/2000/svg"
   xmlns:sodipodi="http://sodipodi.sourceforge.net/DTD/sodipodi-0.dtd"
   xmlns:inkscape="http://www.inkscape.org/namespaces/inkscape"
   version="1.1"
   id="Layer_1"
   x="0px"
   y="0px"
   width="140px"
   height="105px"
   viewBox="0 0 140 105"
   enable-background="new 0 0 140 105"
   xml:space="preserve"
   inkscape:version="0.91 r13725"
   sodipodi:docname="exit-percentage-icon.svg"><metadata
     id="metadata6270"><rdf:RDF><cc:Work
         rdf:about=""><dc:format>image/svg+xml</dc:format><dc:type
           rdf:resource="http://purl.org/dc/dcmitype/StillImage" /></cc:Work></rdf:RDF></metadata><defs
     id="defs6268" /><sodipodi:namedview
     pagecolor="#ffffff"
     bordercolor="#666666"
     borderopacity="1"
     objecttolerance="10"
     gridtolerance="10"
     guidetolerance="10"
     inkscape:pageopacity="0"
     inkscape:pageshadow="2"
     inkscape:window-width="665"
     inkscape:window-height="480"
     id="namedview6266"
     showgrid="false"
     inkscape:zoom="2.247619"
     inkscape:cx="70"
     inkscape:cy="52.5"
     inkscape:window-x="0"
     inkscape:window-y="0"
     inkscape:window-maximized="0"
     inkscape:current-layer="g6260" /><g
     id="g6260"><path
       d="M70.827,65.352V52.92c0-0.84-0.521-1.512-1.174-1.512h-2.349c-0.653,0-1.175,0.672-1.175,1.512v7.813H36.963V23.268H66.13   v7.896c0,0.84,0.522,1.512,1.175,1.512h2.349c0.652,0,1.174-0.672,1.174-1.512V18.648c0-0.84-0.521-1.512-1.174-1.512H33.375   c-0.652,0-1.174,0.672-1.174,1.512v46.704c0,0.84,0.522,1.513,1.174,1.513h36.279C70.306,66.864,70.827,66.191,70.827,65.352z"
       id="path6262"
       style="fill:#4d4d4d;fill-opacity:1" /><path
       d="M76.766,29.568c-0.457,0.588-0.457,1.596,0,2.184l5.611,7.224H42.966c-0.652,0-1.175,0.672-1.175,1.512v3.024   c0,0.84,0.522,1.512,1.175,1.512h39.28l-5.61,7.224c-0.457,0.588-0.457,1.596,0,2.184l1.695,2.185c0.457,0.588,1.24,0.588,1.696,0   l10.571-13.608c0.456-0.588,0.456-1.596,0-2.184l-10.506-13.44c-0.457-0.588-1.239-0.588-1.696,0L76.766,29.568z"
       id="path6264"
       style="fill:#4d4d4d;fill-opacity:1" /></g></svg>