<?xml version="1.0" encoding="utf-8"?>
<!-- Generator: Adobe Illustrator 16.0.0, SVG Export Plug-In . SVG Version: 6.00 Build 0)  -->
<!DOCTYPE svg PUBLIC "-//W3C//DTD SVG 1.1//EN" "http://www.w3.org/Graphics/SVG/1.1/DTD/svg11.dtd">
<svg version="1.1" id="Layer_1" xmlns="http://www.w3.org/2000/svg" xmlns:xlink="http://www.w3.org/1999/xlink" x="0px" y="0px"
	 width="140px" height="105px" viewBox="0 0 140 105" enable-background="new 0 0 140 105" xml:space="preserve">
<path d="M76.624,21.08c-12.936,0-23.436,10.5-23.436,23.436s10.5,23.436,23.436,23.436c12.937,0,23.437-10.5,23.437-23.436
	S89.561,21.08,76.624,21.08z M90.652,58.039c-0.084,0-0.168-0.084-0.252-0.084c-4.284-1.092-7.813-2.688-7.813-2.688
	c-0.42-0.588-0.672-1.596-0.756-2.268c0.924-1.26,1.428-2.856,1.68-4.2c0.084,0.084,0.168,0.084,0.336,0.084
	c0.42,0,0.924-0.505,1.512-2.604c0.589-2.184,0.252-2.855-0.252-3.107l0,0c1.681-8.232-2.184-8.484-2.184-8.484
	s-0.588-1.176-2.1-2.016c-0.924-0.504-2.1-1.008-3.612-1.008c-0.252,0-0.504,0-0.756,0c-0.588,0-1.176,0.168-1.765,0.336l0,0l0,0
	c-0.672,0.252-1.344,0.588-1.932,1.008c-0.672,0.42-1.344,1.008-1.932,1.68c-0.924,1.008-1.764,2.184-2.1,3.78
	c-0.336,1.344-0.336,2.772,0.168,4.2c-0.084,0-0.084,0-0.168,0c-0.672,0-1.344,0.504-0.588,3.107
	c0.588,2.016,1.092,2.604,1.512,2.604c0.252,1.429,0.756,3.193,1.848,4.621c-0.084,0.588-0.252,1.428-0.588,2.016
	c0,0-3.696,1.764-7.896,2.855c-0.084,0-0.168,0-0.252,0.084c-3.36-3.527-5.46-8.231-5.46-13.523
	c0-10.752,8.736-19.488,19.488-19.488S96.28,33.68,96.28,44.432C96.111,49.724,94.012,54.512,90.652,58.039z"/>
</svg>
