<?xml version="1.0" encoding="utf-8"?>
<!-- Generator: Adobe Illustrator 16.0.0, SVG Export Plug-In . SVG Version: 6.00 Build 0)  -->
<!DOCTYPE svg PUBLIC "-//W3C//DTD SVG 1.1//EN" "http://www.w3.org/Graphics/SVG/1.1/DTD/svg11.dtd">
<svg version="1.1" id="Layer_1" xmlns="http://www.w3.org/2000/svg" xmlns:xlink="http://www.w3.org/1999/xlink" x="0px" y="0px"
	 width="792px" height="612px" viewBox="0 0 792 612" enable-background="new 0 0 792 612" xml:space="preserve">
<circle cx="394.418" cy="174.484" r="45.69"/>
<circle cx="530.479" cy="191.37" r="38.017"/>
<g>
	<path d="M621.632,345.937l-29.454-71.291c-3.927,2.032-6.354,2.526-12.299,4.333c-4.592,1.336-24.598,6.252-71.036,6.252
		c-13.263,0-24.372-0.411-33.665-1.008v53.342c0,14.311,11.599,25.92,25.92,25.92h58.747c11.153,0,20.593-7.095,24.245-16.984
		l5.268,12.759c3.688,8.92,13.886,13.16,22.796,9.483C621.064,365.065,625.314,354.857,621.632,345.937z"/>
</g>
<circle cx="258.369" cy="191.37" r="38.012"/>
<g>
	<path d="M167.215,345.937l29.449-71.291c3.927,2.032,6.35,2.526,12.299,4.333c4.593,1.336,24.603,6.252,71.036,6.252
		c13.263,0,24.373-0.411,33.665-1.008v53.342c0,14.311-11.604,25.92-25.919,25.92h-58.752c-11.153,0-20.593-7.095-24.24-16.984
		l-5.268,12.759c-3.687,8.92-13.885,13.16-22.801,9.483C167.783,365.065,163.533,354.857,167.215,345.937z"/>
</g>
<path d="M578.875,239.904c0,0-45.88,6.233-70.541,6.233c-16.563,0-42.64-2.145-58.018-3.985c-5.493-4.842-12.686-7.144-20.583-7.144
	h-70.62c-7.902,0-15.094,2.301-20.587,7.144c-15.378,1.846-41.455,4.318-58.013,4.318c-24.661,0-70.542-6.399-70.542-6.399
	c-9.072,0-16.431,7.271-16.431,16.338c0,9.077,4.676,12.887,18.443,16.984c0,0,15.574,5.625,67.761,5.625
	c21.18,0,37.919-1.048,47.711-2.267v65.958c0,17.215,14.448,29.386,31.657,29.386h70.62c17.204,0,29.915-12.171,29.915-29.381
	v-65.958c14.688,1.219,27.407,2.247,48.578,2.247c52.181,0,68.318-5.65,68.318-5.65c13.768-4.098,18.604-7.941,18.604-17.023
	C595.149,247.263,587.942,239.904,578.875,239.904z"/>
</svg>
