<?xml version="1.0" encoding="utf-8"?>
<!-- Generator: Adobe Illustrator 16.0.0, SVG Export Plug-In . SVG Version: 6.00 Build 0)  -->
<!DOCTYPE svg PUBLIC "-//W3C//DTD SVG 1.1//EN" "http://www.w3.org/Graphics/SVG/1.1/DTD/svg11.dtd">
<svg version="1.1" id="Layer_1" xmlns="http://www.w3.org/2000/svg" xmlns:xlink="http://www.w3.org/1999/xlink" x="0px" y="0px"
	 width="792px" height="612px" viewBox="0 0 792 612" enable-background="new 0 0 792 612" xml:space="preserve">
<rect x="310.494" y="140.503" transform="matrix(-0.7071 -0.7071 0.7071 -0.7071 500.2906 699.543)" width="169.062" height="211.309"/>
<path d="M616.785,184.711l0.313-39.863c0.01-1.479-0.603-2.938-1.685-4.024c-1.087-1.087-2.546-1.699-4.024-1.684l-34.11,0.274
	l0.27-34.11c0.01-1.479-0.603-2.938-1.685-4.024c-1.087-1.087-2.546-1.699-4.024-1.685l-34.11,0.27l0.274-34.11
	c0.01-1.479-0.603-2.938-1.685-4.025c-1.087-1.087-2.546-1.699-4.024-1.684l-34.11,0.27l0.27-34.111
	c0.01-1.479-0.603-2.938-1.685-4.024c-1.087-1.087-2.546-1.699-4.024-1.684l-39.863,0.313c-1.322,0.015-2.551,0.519-3.457,1.42
	L166.49,305.158c-0.901,0.901-1.41,2.135-1.42,3.457l-0.318,39.863c-0.015,1.479,0.598,2.938,1.685,4.024s2.546,1.699,4.024,1.685
	l34.11-0.27l-0.269,34.11c-0.01,1.479,0.602,2.938,1.684,4.024c1.087,1.087,2.546,1.699,4.024,1.685l34.105-0.27l-0.269,34.11
	c-0.015,1.479,0.602,2.938,1.684,4.024c1.087,1.087,2.546,1.699,4.024,1.685l34.11-0.27l-0.269,34.105
	c-0.015,1.479,0.602,2.938,1.684,4.025c1.087,1.087,2.546,1.698,4.024,1.684l39.863-0.313c1.317-0.01,2.551-0.514,3.457-1.42
	L615.36,188.163C616.266,187.262,616.775,186.028,616.785,184.711z M539.923,231.591L380.46,391.054l-25.532,25.532
	c-6.923,6.923-18.076,7.035-24.862,0.25l-105.714-105.72c-6.786-6.786-6.673-17.939,0.25-24.862l25.533-25.533l159.462-159.462
	l25.949-25.949c6.923-6.923,18.076-7.035,24.862-0.25L566.126,180.78c6.786,6.786,6.674,17.939-0.249,24.862L539.923,231.591z"/>
<path d="M255.524,266.117l-25.533,25.533c-4.157,4.157-4.431,10.634-0.617,14.448l105.719,105.72
	c3.814,3.813,10.292,3.535,14.448-0.622l25.533-25.532L255.524,266.117z M256.067,311.865c-4.093-4.093-4.323-10.507-0.509-14.321
	s10.228-3.583,14.321,0.509c4.093,4.093,4.323,10.507,0.509,14.321C266.574,316.188,260.161,315.958,256.067,311.865z
	 M291.793,347.592c-4.093-4.094-4.323-10.507-0.509-14.321c3.814-3.813,10.228-3.584,14.321,0.51
	c4.093,4.093,4.323,10.507,0.509,14.32C302.305,351.915,295.892,351.689,291.793,347.592z M329.884,385.683
	c-4.093-4.093-4.323-10.507-0.509-14.321c3.814-3.813,10.228-3.584,14.321,0.51c4.093,4.093,4.323,10.507,0.509,14.32
	C340.391,390.006,333.978,389.775,329.884,385.683z"/>
<path d="M561.098,185.803L455.384,80.084c-3.814-3.814-10.297-3.535-14.448,0.617l-25.949,25.949l119.546,119.546l25.949-25.949
	C564.633,196.095,564.912,189.612,561.098,185.803z M446.326,121.044c-4.093-4.093-4.323-10.507-0.51-14.321
	c3.814-3.814,10.229-3.584,14.321,0.509c4.093,4.093,4.323,10.507,0.509,14.32C456.833,125.367,450.419,125.137,446.326,121.044z
	 M482.052,156.77c-4.093-4.093-4.323-10.507-0.509-14.321c3.813-3.814,10.228-3.584,14.32,0.509
	c4.094,4.093,4.323,10.507,0.51,14.321C492.563,161.093,486.15,160.868,482.052,156.77z M520.143,194.861
	c-4.093-4.093-4.322-10.507-0.509-14.321c3.814-3.814,10.228-3.584,14.321,0.509c4.093,4.093,4.322,10.507,0.509,14.321
	C530.649,199.184,524.236,198.954,520.143,194.861z"/>
</svg>
