<?xml version="1.0" encoding="utf-8"?>
<!-- Generator: Adobe Illustrator 16.0.0, SVG Export Plug-In . SVG Version: 6.00 Build 0)  -->
<!DOCTYPE svg PUBLIC "-//W3C//DTD SVG 1.1//EN" "http://www.w3.org/Graphics/SVG/1.1/DTD/svg11.dtd">
<svg version="1.1" id="Layer_1" xmlns="http://www.w3.org/2000/svg" xmlns:xlink="http://www.w3.org/1999/xlink" x="0px" y="0px"
	 width="792px" height="612px" viewBox="0 0 792 612" enable-background="new 0 0 792 612" xml:space="preserve">
<path d="M309.831,414.201c1.469,8.323,0,14.688-3.917,18.605c-3.917,3.917-10.771,4.896-18.605,2.938l-95.472-27.907
	c-16.157-4.406-19.095-17.626-6.854-28.887l25.949-23.99c-0.49-0.489-0.49-0.979-0.979-1.469
	c-52.877-89.107-34.272-200.247,38.188-267.322c10.771-10.281,23.011-19.094,36.23-27.417
	c32.803-19.584,68.544-29.376,104.285-29.866V61.2c-29.866,0.979-60.221,9.302-87.639,25.459
	c-11.261,6.854-21.542,14.688-30.845,23.011c-60.71,56.304-76.867,148.349-35.251,222.768l26.438-24.48
	c12.24-11.26,24.97-7.344,28.397,8.813L309.831,414.201z M502.732,172.829c3.428,16.157,16.157,20.074,28.397,8.813l26.438-24.48
	c41.615,74.419,25.459,166.464-34.762,222.768c-9.303,8.813-19.584,16.156-30.845,23.011c-27.418,16.646-57.773,24.48-87.639,25.46
	v32.313c35.741-0.979,71.481-10.771,104.285-29.866c13.219-7.833,25.459-17.136,36.229-27.417
	c71.972-67.075,90.087-178.215,37.21-266.832c-0.489-0.49-0.489-0.979-0.979-1.469l25.949-23.99
	c12.24-11.261,9.303-24.48-6.854-28.886l-95.472-27.418c-7.834-2.448-14.688-0.979-18.605,2.938
	c-3.916,3.917-5.875,10.281-3.916,18.604L502.732,172.829z"/>
</svg>
