<?xml version="1.0" encoding="utf-8"?>
<!-- Generator: Adobe Illustrator 16.0.0, SVG Export Plug-In . SVG Version: 6.00 Build 0)  -->
<!DOCTYPE svg PUBLIC "-//W3C//DTD SVG 1.1//EN" "http://www.w3.org/Graphics/SVG/1.1/DTD/svg11.dtd">
<svg version="1.1" id="Layer_1" xmlns="http://www.w3.org/2000/svg" xmlns:xlink="http://www.w3.org/1999/xlink" x="0px" y="0px"
	 width="792px" height="612px" viewBox="0 0 792 612" enable-background="new 0 0 792 612" xml:space="preserve">
<g>
	<path d="M546.688,384.064c-21.216-16.32-38.079-36.992-46.783-62.561c-8.704-27.2,11.968-46.24,21.76-69.088
		c14.688-35.904,19.584-74.528,9.792-112.608c-19.04-69.632-100.096-88.128-163.2-90.304c-71.264-2.176-111.52,46.24-116.96,113.696
		c-2.176,22.848,7.072,48.416-10.336,66.912c-7.072,7.616-22.304,16.32-23.936,28.288c-1.632,9.792,0.544,17.952,7.616,25.024
		c2.176,2.176,5.984,2.72,9.248,3.264c18.496,2.176,15.776,16.864,14.688,29.376c-0.544,3.264,3.264,7.071,7.072,7.071
		c4.896-0.544,9.792-0.544,14.688-1.088c8.704-0.544,8.704-14.144,0-13.6c-4.896,0-9.792,0.544-14.688,1.088
		c2.176,2.176,4.352,4.352,7.072,7.072c1.632-16.32,5.984-39.168-17.408-41.889c-32.096-3.264,1.632-30.464,9.792-38.624
		c7.616-7.616,9.792-17.408,10.88-27.2c2.176-16.864-1.632-34.272,0-51.68c1.632-19.04,7.616-37.536,16.864-53.856
		c20.672-35.904,62.56-40.8,100.096-38.624c35.36,2.176,73.44,11.424,102.816,31.552c39.168,26.112,42.433,82.144,33.185,122.944
		c-7.616,34.816-35.904,60.384-33.729,97.376c2.176,30.464,28.832,59.84,51.681,77.792
		C543.968,398.752,553.216,389.504,546.688,384.064L546.688,384.064z"/>
</g>
<g>
	<path d="M368.8,420.512c0.544-11.968,3.264-33.728-4.352-44.063c-9.248-11.968-27.2-9.792-40.256-8.16
		c-19.584,1.632-59.84,11.968-53.856-19.584c1.088-6.528,4.352-10.336,0.544-16.864c-2.176-3.264-3.808-7.072-5.44-6.527
		c4.896-1.633,9.792-2.721,14.688-4.353c8.16-2.72,4.896-15.776-3.808-13.056c-5.44,1.632-34.816,6.527-25.024,19.584
		c8.16,10.336,5.44,16.319,4.352,28.288c-1.088,8.159,2.176,15.231,7.072,21.76c10.336,13.056,43.52,5.983,57.12,4.896
		c9.248-1.088,31.552-5.983,34.816,6.528c2.72,9.792,1.632,21.76,1.088,32.096C354.656,429.216,368.256,429.216,368.8,420.512
		L368.8,420.512z"/>
</g>
<path d="M477.056,152.32h-1.088c-0.544-3.808-1.632-7.072-3.264-10.88l1.088-1.088c5.44-4.352,8.704-9.248,8.704-13.6
	c0-1.088-0.544-2.176-1.088-3.264c-2.721-3.808-10.88-2.72-17.952,2.72l-1.632,1.088c-2.721-2.176-5.984-3.808-9.248-4.896v-1.088
	c0-1.632,0.544-2.72,0.544-4.352c0-7.072-2.72-12.512-6.528-13.056c-4.896-0.544-9.248,5.984-10.88,14.688v1.632
	c-3.264,0.544-6.528,1.088-9.792,2.72l-1.632-2.176c-4.353-5.44-9.248-8.704-13.601-8.704c-1.088,0-2.176,0.544-3.264,1.088
	c-3.808,2.72-2.176,10.88,2.72,17.952l1.633,1.632c-2.177,2.72-4.353,5.44-5.44,8.704h-2.176c-1.632,0-2.72-0.544-4.353-0.544
	c-7.072,0-12.512,2.72-13.056,6.528c-0.544,4.896,5.984,9.248,14.688,10.88h1.632c0,3.808,1.088,7.616,2.176,10.88l-0.544,0.544
	c-5.44,4.352-8.704,9.248-8.704,13.056c0,1.088,0.544,2.176,1.088,3.264c2.72,3.808,10.88,2.176,17.952-2.72l0.544-0.544
	c2.72,2.72,6.528,4.896,10.336,6.528v1.632c0,1.632-0.544,2.72-0.544,4.352c0,7.072,2.72,12.512,6.528,13.056
	c4.896,0.544,9.248-5.984,10.88-14.688v-1.088c4.352-0.544,8.16-1.632,11.968-3.264c4.352,5.44,9.248,8.704,13.056,8.704
	c1.089,0,2.177-0.544,3.265-1.088c3.808-2.72,2.176-10.88-3.265-17.952l0,0c2.721-3.264,4.353-6.528,5.984-10.336h0.544
	c1.632,0,2.72,0,3.809,0c7.071,0,12.512-2.72,13.056-6.528C492.288,158.304,485.76,153.408,477.056,152.32z M456.384,158.304
	c0,1.632-0.544,2.72-1.088,4.352c-0.544,1.632-1.088,2.72-2.176,3.808c-2.176,2.176-4.353,4.352-7.072,5.44
	c-1.088,0.544-2.72,1.088-4.352,1.088s-3.265,0-4.353,0s-2.72-0.544-4.352-1.088c-1.632-0.544-2.721-1.632-3.809-2.176
	c-2.176-1.632-4.352-4.352-5.439-7.072c-0.544-1.632-1.088-2.72-1.088-4.352c0-1.632,0-3.264,0-4.352
	c0-1.632,0.544-3.264,1.088-4.352c0.544-1.632,1.088-2.72,2.176-3.808c1.632-2.176,4.352-4.352,7.072-5.44
	c1.088-0.544,2.72-1.088,4.352-1.088s2.721,0,4.353,0s2.72,0.544,4.352,1.088s2.72,1.632,3.809,2.176
	c2.176,1.632,4.352,4.352,5.439,7.072c0.544,1.088,1.088,2.72,1.088,4.352C456.928,155.04,456.928,156.672,456.384,158.304z"/>
<path d="M387.84,117.504h-1.088c-0.544-3.264-1.632-6.528-2.72-9.792l1.088-0.544c4.896-3.808,8.16-8.704,8.16-12.512
	c0-1.088-0.544-2.176-1.088-2.72c-2.72-3.264-9.792-2.176-16.32,2.72l-1.632,1.088c-2.72-2.176-5.44-3.808-8.16-4.896V89.76
	c0-1.088,0-2.72,0-3.808c0-6.528-2.176-11.424-5.984-11.968c-4.352-0.544-8.704,5.44-9.792,13.6v1.088
	c-3.264,0.544-5.984,1.088-8.704,2.176l-1.632-2.176c-3.808-4.896-8.704-8.16-12.512-8.16c-1.088,0-2.176,0.544-2.72,1.088
	c-3.264,2.72-2.176,10.336,2.72,16.32l1.088,1.632c-2.176,2.176-3.808,4.896-4.896,8.16h-2.176c-1.088,0-2.72,0-3.808,0
	c-6.528,0-11.424,2.176-11.968,5.984c-0.544,4.352,5.44,8.704,13.6,9.792h1.088c0,3.264,1.088,7.072,2.176,9.792l-0.544,0.544
	c-4.896,4.896-7.616,9.792-7.616,13.056c0,1.088,0.544,2.176,1.088,2.72c2.72,3.264,9.792,2.176,16.32-2.72h0.544
	c2.72,2.72,5.984,4.352,9.248,5.984v1.088c0,1.088-0.544,2.72-0.544,3.808c0,6.528,2.176,11.424,5.984,11.968
	c4.352,0.544,8.704-5.44,9.792-13.6v-1.088c3.808-0.544,7.616-1.088,10.88-2.72c3.808,4.896,8.704,8.16,11.968,8.16
	c1.088,0,2.176-0.544,2.72-1.088c3.264-2.72,2.176-10.336-2.72-16.32l0,0c2.176-2.72,4.352-5.984,5.44-9.792h0.544
	c1.088,0,2.72,0,3.808,0c6.528,0,11.424-2.176,11.968-5.984S396,119.136,387.84,117.504z M369.344,122.944
	c0,1.632-0.544,2.72-1.088,3.808s-1.088,2.72-2.176,3.264c-1.632,2.176-3.808,3.808-6.528,4.896
	c-1.088,0.544-2.72,1.088-3.808,1.088c-1.632,0-2.72,0-4.352,0c-1.632,0-2.72-0.544-3.808-1.088s-2.72-1.088-3.264-2.176
	c-2.176-1.632-3.808-3.808-4.896-6.528c-0.544-1.088-1.088-2.72-1.088-3.808s0-2.72,0-4.352c0-1.632,0.544-2.72,1.088-3.808
	c0.544-1.088,1.088-2.72,2.176-3.264c1.632-2.176,3.808-3.808,6.528-4.896c1.088-0.544,2.72-1.088,3.808-1.088s2.72,0,4.352,0
	s2.72,0.544,3.808,1.088c1.088,0.544,2.72,1.088,3.264,2.176c2.176,1.632,3.808,3.808,4.896,6.528
	c0.544,1.088,1.088,2.72,1.088,3.808C369.344,120.224,369.344,121.856,369.344,122.944z"/>
<path d="M387.84,196.384h-0.544c0-2.176-1.088-3.808-1.632-5.984l0.544-0.544c2.72-2.176,4.896-4.896,4.896-7.072
	c0-0.544,0-1.088-0.544-1.632c-1.632-2.176-5.984-1.088-9.792,1.632l-1.088,0.544c-1.632-1.088-3.264-2.176-4.896-2.72v-0.544
	c0-0.544,0-1.632,0-2.176c0-3.808-1.632-7.072-3.808-7.072c-2.72-0.544-4.896,3.264-5.984,8.16v0.544
	c-1.632,0-3.808,0.544-5.44,1.632l-0.544-1.632c-2.176-2.72-4.896-4.896-7.072-4.896c-0.544,0-1.088,0-1.632,0.544
	c-2.176,1.632-1.088,5.984,1.632,9.792l0.544,1.088c-1.088,1.632-2.176,3.264-3.264,4.896h-1.088c-0.544,0-1.632,0-2.176,0
	c-3.808,0-7.072,1.632-7.072,3.808c-0.544,2.72,3.264,5.44,8.16,5.984h0.544c0,2.176,0.544,4.352,1.088,5.984v0
	c-2.72,2.176-4.896,4.896-4.896,7.072c0,0.544,0,1.088,0.544,1.632c1.632,2.176,5.984,1.088,9.792-1.632l0,0
	c1.632,1.632,3.264,2.72,5.44,3.264v0.544c0,0.544,0,1.632,0,2.176c0,3.808,1.632,7.072,3.808,7.072
	c2.72,0.544,4.896-3.264,5.984-8.16v-0.544c2.176,0,4.352-0.544,6.528-1.632c2.176,2.72,4.896,4.896,7.072,4.896
	c0.544,0,1.088,0,1.632-0.544c2.176-1.632,1.088-5.984-1.632-9.792l0,0c1.632-1.632,2.176-3.808,3.264-5.984l0,0
	c0.544,0,1.632,0,2.176,0c3.808,0,7.072-1.632,7.072-3.808C396.544,199.648,392.736,196.928,387.84,196.384z M376.96,199.648
	c0,1.088-0.544,1.632-0.544,2.176c-0.544,0.544-0.544,1.632-1.088,2.176c-1.088,1.088-2.176,2.176-3.808,2.72
	c-0.544,0.544-1.632,0.544-2.176,0.544c-1.088,0-1.632,0-2.72,0s-1.632-0.544-2.176-0.544c-0.544-0.544-1.632-0.544-2.176-1.088
	c-1.088-1.088-2.176-2.176-2.72-3.808c-0.544-0.544-0.544-1.632-0.544-2.176s0-1.632,0-2.72c0-1.088,0.544-1.632,0.544-2.176
	c0.544-0.544,0.544-1.632,1.088-2.176c1.088-1.088,2.176-2.176,3.808-2.72c0.544-0.544,1.632-0.544,2.176-0.544s1.632,0,2.72,0
	c1.088,0,1.632,0.544,2.176,0.544c0.544,0.544,1.632,0.544,2.176,1.088c1.088,1.088,2.176,2.176,2.72,3.808
	c0.544,0.544,0.544,1.632,0.544,2.176C376.96,198.016,376.96,198.56,376.96,199.648z"/>
</svg>
