<?xml version="1.0" encoding="utf-8"?>
<!-- Generator: Adobe Illustrator 19.0.0, SVG Export Plug-In . SVG Version: 6.00 Build 0)  -->
<svg version="1.1"
	 id="Layer_1" xmlns:sodipodi="http://sodipodi.sourceforge.net/DTD/sodipodi-0.dtd" xmlns:svg="http://www.w3.org/2000/svg" xmlns:inkscape="http://www.inkscape.org/namespaces/inkscape" xmlns:cc="http://creativecommons.org/ns#" xmlns:rdf="http://www.w3.org/1999/02/22-rdf-syntax-ns#" xmlns:dc="http://purl.org/dc/elements/1.1/"
	 xmlns="http://www.w3.org/2000/svg" xmlns:xlink="http://www.w3.org/1999/xlink" x="0px" y="0px" viewBox="-255 334 100 125"
	 style="enable-background:new -255 334 100 125;" xml:space="preserve">
<g transform="translate(0,-952.36218)">
	<path d="M-204.9,1292.4c-8.8,0.1-15.5,3.7-19.8,9.3c-0.7,0.9-1.4,1.9-2,2.9c-1-0.1-2.1-0.2-3.2-0.3c0,0,0,0-0.1,0
		c-6.4,0.1-11.5,2.8-14.6,6.9c-3.2,4.1-4.5,9.6-4.4,15.2c0.2,11.1,6,23.3,17,29.3c0,1,0.3,2,0.7,2.7c0.6,1.2,1.4,2.2,1.8,3
		s0.5,1.2,0.5,1.4c-0.1,0.2-0.4,0.8-2.2,1.7c-1,0.5-1.4,1.7-0.9,2.7s1.7,1.4,2.7,0.9l0,0c2.2-1.2,3.7-2.5,4.2-4.3
		c0.5-1.8-0.2-3.3-0.8-4.4c-0.7-1.1-1.4-2.1-1.8-2.8c-0.2-0.4-0.3-0.6-0.3-0.8c2.5-1.5,4.8-3.3,6.8-5.3c3.7,5,8.5,9.4,14.3,12.4
		c-0.1,1.4,0.3,2.8,0.9,3.9c0.8,1.6,1.9,3,2.5,4.2c0.7,1.2,0.9,2,0.7,2.6c-0.2,0.6-0.9,1.6-3.4,2.9c-1,0.5-1.4,1.7-0.9,2.7
		c0.5,1,1.7,1.4,2.7,0.9c3-1.6,4.8-3.3,5.4-5.4c0.6-2.1-0.3-4.1-1.1-5.6c-0.9-1.5-1.9-2.8-2.4-3.9c-0.5-0.9-0.6-1.5-0.4-2
		c5.6-3.2,10.2-7.5,13.9-12.3c1.9,1.9,4.2,3.6,6.6,4.9c0,1,0.3,2,0.7,2.7c0.6,1.2,1.4,2.2,1.8,3c0.5,0.8,0.5,1.2,0.4,1.4
		c-0.1,0.2-0.4,0.8-2.1,1.7c-1,0.5-1.4,1.7-0.9,2.7s1.7,1.4,2.7,0.9l0,0c2.2-1.2,3.7-2.5,4.2-4.3c0.5-1.8-0.2-3.3-0.8-4.4
		c-0.7-1.1-1.4-2.1-1.8-2.8c-0.2-0.4-0.3-0.6-0.3-0.8c11.3-6.7,17.3-19,17.5-30c0.1-5.6-1.3-10.9-4.6-14.8c-3.2-4-8.3-6.5-14.7-6.6
		c0,0,0,0-0.1,0c-0.8,0-1.6,0.1-2.3,0.2c-0.6-1.1-1.4-2.2-2.2-3.2C-189.2,1296-196,1292.5-204.9,1292.4
		C-204.9,1292.4-204.9,1292.4-204.9,1292.4L-204.9,1292.4z M-204.9,1296.4c7.8,0.1,13.3,3,16.9,7.5c3.6,4.5,5.5,10.8,5.4,17.7
		c-0.2,13.7-7.9,29.7-22.3,38.1c-14-7.3-21.7-23.2-21.9-37.2c-0.1-7.1,1.7-13.6,5.3-18.3C-218,1299.4-212.6,1296.5-204.9,1296.4z
		 M-235.4,1313.3c0.1,0,0.1,0,0.2,0c1.1,0.1,2,1,1.9,2.1c0,0.6-0.3,1.1-0.7,1.4c-2.8,2.4-4.9,6.9-2.6,15.8c0.3,1.1-0.4,2.2-1.4,2.4
		c-1.1,0.3-2.2-0.4-2.4-1.4c-2.6-9.8-0.1-16.3,3.8-19.8C-236.3,1313.5-235.8,1313.3-235.4,1313.3z M-173.6,1314.1c0.1,0,0.1,0,0.2,0
		c0.5,0,0.9,0.1,1.3,0.4c2.8,2.2,4.1,5.8,4.4,9.4c0.3,3.7-0.2,7.6-1.8,10.7c-0.4,1-1.6,1.5-2.6,1c-1-0.4-1.5-1.6-1-2.6
		c0,0,0-0.1,0.1-0.1c1.2-2.3,1.7-5.6,1.4-8.6c-0.3-3-1.4-5.5-2.9-6.6c-0.9-0.7-1.1-1.9-0.4-2.8
		C-174.6,1314.4-174.1,1314.1-173.6,1314.1z"/>
	<path d="M-198.7,1301.1c-1.1,0-2,0.9-2,2c0,0.9,0.6,1.7,1.5,1.9c3,0.9,5.4,3.5,7,7.4s2.2,9,1.7,14.4c-0.1,1.1,0.7,2.1,1.8,2.2
		c1.1,0.1,2.1-0.7,2.2-1.8c0,0,0,0,0-0.1c0.6-5.9-0.1-11.6-1.9-16.3c-1.9-4.7-5.1-8.4-9.5-9.7
		C-198.3,1301.1-198.5,1301.1-198.7,1301.1z"/>
</g>
</svg>
