<?xml version="1.0" encoding="utf-8"?>
<!-- Generator: Adobe Illustrator 16.0.0, SVG Export Plug-In . SVG Version: 6.00 Build 0)  -->
<!DOCTYPE svg PUBLIC "-//W3C//DTD SVG 1.1//EN" "http://www.w3.org/Graphics/SVG/1.1/DTD/svg11.dtd">
<svg version="1.1" id="Layer_1" xmlns="http://www.w3.org/2000/svg" xmlns:xlink="http://www.w3.org/1999/xlink" x="0px" y="0px"
	 width="140px" height="105px" viewBox="0 0 140 105" enable-background="new 0 0 140 105" xml:space="preserve">
<g>
	<path d="M70,4.2C49.168,4.2,32.2,21.168,32.2,42S49.168,79.8,70,79.8s37.8-16.968,37.8-37.8S90.832,4.2,70,4.2z M70,71.4
		c-16.212,0-29.4-13.188-29.4-29.4S53.788,12.6,70,12.6S99.4,25.788,99.4,42S86.212,71.4,70,71.4z"/>
	<path d="M74.2,37.8v-8.4H82.6V21H74.2v-4.2h-8.4V21c-6.972,0-12.6,5.628-12.6,12.6c0,6.972,5.628,12.6,12.6,12.6V54.6H55.3V63h10.5
		v4.2h8.4V63c6.972,0,12.6-5.628,12.6-12.6C86.8,43.428,81.172,37.8,74.2,37.8z M65.8,37.8c-2.352,0-4.2-1.848-4.2-4.2
		s1.848-4.2,4.2-4.2V37.8z M74.2,54.6V46.2c2.352,0,4.2,1.848,4.2,4.2S76.552,54.6,74.2,54.6z"/>
</g>
</svg>
