<?xml version="1.0" encoding="UTF-8" standalone="no"?>
<!-- Generator: Adobe Illustrator 16.0.0, SVG Export Plug-In . SVG Version: 6.00 Build 0)  -->

<svg
   xmlns:osb="http://www.openswatchbook.org/uri/2009/osb"
   xmlns:dc="http://purl.org/dc/elements/1.1/"
   xmlns:cc="http://creativecommons.org/ns#"
   xmlns:rdf="http://www.w3.org/1999/02/22-rdf-syntax-ns#"
   xmlns:svg="http://www.w3.org/2000/svg"
   xmlns="http://www.w3.org/2000/svg"
   xmlns:xlink="http://www.w3.org/1999/xlink"
   xmlns:sodipodi="http://sodipodi.sourceforge.net/DTD/sodipodi-0.dtd"
   xmlns:inkscape="http://www.inkscape.org/namespaces/inkscape"
   version="1.1"
   id="Layer_1"
   x="0px"
   y="0px"
   width="140px"
   height="105px"
   viewBox="0 0 140 105"
   enable-background="new 0 0 140 105"
   xml:space="preserve"
   inkscape:version="0.91 r13725"
   sodipodi:docname="price-per-person-icon.svg"><metadata
     id="metadata4167"><rdf:RDF><cc:Work
         rdf:about=""><dc:format>image/svg+xml</dc:format><dc:type
           rdf:resource="http://purl.org/dc/dcmitype/StillImage" /></cc:Work></rdf:RDF></metadata><defs
     id="defs4165"><linearGradient
       id="linearGradient4969"
       osb:paint="solid"><stop
         style="stop-color:#4d4d4d;stop-opacity:1;"
         offset="0"
         id="stop4971" /></linearGradient><linearGradient
       inkscape:collect="always"
       xlink:href="#linearGradient4969"
       id="linearGradient4973"
       x1="32.2"
       y1="42"
       x2="107.8"
       y2="42"
       gradientUnits="userSpaceOnUse" /></defs><sodipodi:namedview
     pagecolor="#ffffff"
     bordercolor="#666666"
     borderopacity="1"
     objecttolerance="10"
     gridtolerance="10"
     guidetolerance="10"
     inkscape:pageopacity="0"
     inkscape:pageshadow="2"
     inkscape:window-width="1409"
     inkscape:window-height="788"
     id="namedview4163"
     showgrid="false"
     inkscape:zoom="7.7645503"
     inkscape:cx="70"
     inkscape:cy="63"
     inkscape:window-x="5"
     inkscape:window-y="10"
     inkscape:window-maximized="0"
     inkscape:current-layer="g4157" /><g
     id="g4157"
     style="fill:url(#linearGradient4973);fill-opacity:1"><path
       d="M70,4.2C49.168,4.2,32.2,21.168,32.2,42S49.168,79.8,70,79.8s37.8-16.968,37.8-37.8S90.832,4.2,70,4.2z M70,71.4   c-16.212,0-29.4-13.188-29.4-29.4S53.788,12.6,70,12.6S99.4,25.788,99.4,42S86.212,71.4,70,71.4z"
       id="path4159"
       style="fill:url(#linearGradient4973);fill-opacity:1" /><path
       d="M74.2,37.8v-8.4H82.6V21H74.2v-4.2h-8.4V21c-6.972,0-12.6,5.628-12.6,12.6c0,6.972,5.628,12.6,12.6,12.6V54.6H55.3V63h10.5   v4.2h8.4V63c6.972,0,12.6-5.628,12.6-12.6C86.8,43.428,81.172,37.8,74.2,37.8z M65.8,37.8c-2.352,0-4.2-1.848-4.2-4.2   s1.848-4.2,4.2-4.2V37.8z M74.2,54.6V46.2c2.352,0,4.2,1.848,4.2,4.2S76.552,54.6,74.2,54.6z"
       id="path4161"
       style="fill:url(#linearGradient4973);fill-opacity:1" /></g></svg>