<?xml version="1.0" encoding="utf-8"?>
<!-- Generator: Adobe Illustrator 19.0.0, SVG Export Plug-In . SVG Version: 6.00 Build 0)  -->
<svg version="1.1" id="Layer_1" xmlns="http://www.w3.org/2000/svg" xmlns:xlink="http://www.w3.org/1999/xlink" x="0px" y="0px"
	 viewBox="-255 334 100 125" style="enable-background:new -255 334 100 125;" xml:space="preserve">
<title>Artboard 15</title>
<path d="M-190.5,398.5c-1.2-1.1-2.9-0.6-2.9,1.5v5c0,1.5-1.2,2.7-2.7,2.7l0,0h-5.1c-2,0-2.5-1.8-1.4-3c1.8-2,0.8-5-2.4-5.2
	c-3.2,0.1-4.1,3.2-2.4,5.2c1.1,1.2,0.6,2.9-1.4,3h-5c-1.5,0-2.7-1.2-2.8-2.7v-5c0-2.1-1.7-2.5-2.9-1.5c-2,1.8-5,0.8-5.1-2.4
	c0.1-3.2,3.2-4.1,5.1-2.4c1.2,1.1,2.9,0.6,2.9-1.5v-5c0-1.5,1.2-2.7,2.7-2.7h5c2.1,0,2.5-1.8,1.5-3c-1.8-2-0.8-5,2.4-5.2
	c3.2,0.1,4.1,3.2,2.4,5.2c-1.1,1.2-0.6,3,1.5,3h5c1.5,0,2.7,1.2,2.7,2.7v5c0,2.1,1.8,2.5,3,1.5c2-1.8,5-0.8,5.2,2.4
	C-185.5,399.3-188.5,400.2-190.5,398.5z M-223.3,365.2c-0.6-0.9-1.8-1.1-2.7-0.4s-1.1,1.8-0.4,2.7c0.6,0.9,1.8,1.1,2.7,0.4
	c0,0,0,0,0,0C-222.9,367.3-222.7,366.1-223.3,365.2z M-183.4,367.5c0.6-0.9,0.4-2.1-0.4-2.7c-0.9-0.6-2.1-0.4-2.7,0.4
	c-0.6,0.9-0.4,2.1,0.4,2.7c0,0,0,0,0,0C-185.3,368.6-184.1,368.4-183.4,367.5z M-171.3,392.3h0.3c1.1-0.1,1.9-1,1.8-2
	c-0.1-1.1-1-1.9-2-1.8c-1.1,0.1-1.9,1-1.8,2C-173,391.4-172.2,392.2-171.3,392.3L-171.3,392.3z M-205.1,429.7L-205.1,429.7
	c1.1,0,1.9-0.9,1.9-1.9s-0.9-1.9-1.9-1.9c-1.1,0-1.9,0.9-1.9,1.9C-207,428.8-206.1,429.7-205.1,429.7
	C-205.1,429.7-205,429.7-205.1,429.7L-205.1,429.7z M-240.7,390L-240.7,390c-0.2,1.1,0.6,2,1.6,2.2c0,0,0,0,0,0h0.2
	c1,0,1.9-0.7,2-1.7l0,0l0,0c0.1-1.1-0.6-2-1.7-2.2S-240.6,388.9-240.7,390L-240.7,390z M-217.1,425.6c0.4-1,0-2.1-1-2.6
	s-2.1,0-2.6,1c-0.4,1,0,2.1,1,2.6c0.2,0.1,0.5,0.2,0.8,0.2C-218.1,426.8-217.4,426.4-217.1,425.6z M-190.4,426.6
	c1-0.4,1.4-1.6,1-2.6s-1.6-1.4-2.6-1l0,0c-1,0.4-1.5,1.5-1.1,2.5c0.4,1,1.5,1.5,2.5,1.1C-190.5,426.7-190.5,426.7-190.4,426.6z
	 M-175.6,378.8c0.4,0,0.7-0.1,1-0.3c0.9-0.5,1.2-1.7,0.7-2.6s-1.7-1.2-2.6-0.7c-0.9,0.5-1.2,1.7-0.7,2.6
	C-176.9,378.5-176.3,378.8-175.6,378.8z M-236,375.8c-0.5,0.9-0.2,2.1,0.7,2.6c0.3,0.2,0.6,0.3,0.9,0.3c1.1,0,2-0.8,2-1.9
	s-0.8-2-1.9-2C-235,374.8-235.6,375.2-236,375.8z M-209.6,355.9c-2.8,1.4-5.5,3.1-8,5.1c-0.6,0.5-1,1.3-1,2.1v3.8h27.2v-3.8
	c0-0.8-0.4-1.6-1-2.1c-2.5-2-5.2-3.7-8-5.1c-0.1,0-0.1-0.1-0.1-0.2V353c0.4-0.6,0.6-1.4,0.8-2.1c0.3,0,0.7-0.4,1.1-1.9
	c0.6-2,0-2.3-0.5-2.3c0.1-0.3,0.2-0.5,0.2-0.8c0.9-5.3-1.7-5.4-1.7-5.4c-0.4-0.6-0.9-1.1-1.5-1.4c-1-0.6-2.1-0.8-3.2-0.7
	c-0.4,0-0.9,0.1-1.3,0.2l0,0c-0.5,0.2-1,0.4-1.4,0.7c-0.5,0.3-1,0.7-1.4,1.2c-0.8,0.7-1.3,1.7-1.6,2.7c-0.2,0.9-0.2,1.8,0,2.7l0,0
	c0.1,0.3,0.1,0.6,0.2,0.8c-0.5,0-1.1,0.3-0.5,2.3c0.4,1.5,0.8,1.9,1.1,1.9c0.1,0.7,0.4,1.5,0.8,2.1v2.6
	C-209.5,355.7-209.6,355.8-209.6,355.9L-209.6,355.9z M-166.6,413.9c-0.1,0-0.1-0.1-0.1-0.2V411c0.4-0.6,0.6-1.4,0.7-2.1
	c0.3,0,0.7-0.4,1.1-1.9c0.6-2,0-2.3-0.6-2.3c0.1-0.3,0.2-0.5,0.2-0.8c0.9-5.3-1.7-5.4-1.7-5.4c-0.4-0.6-1-1.1-1.6-1.4
	c-1-0.6-2.1-0.8-3.2-0.7c-0.4,0-0.9,0.1-1.3,0.2l0,0c-0.5,0.2-1,0.4-1.4,0.7c-0.5,0.3-1,0.7-1.4,1.2c-0.8,0.8-1.3,1.7-1.6,2.7
	c-0.2,0.9-0.2,1.8,0,2.7l0,0c0.1,0.3,0.1,0.6,0.2,0.8c-0.5,0-1.1,0.3-0.5,2.3c0.4,1.5,0.8,1.9,1.1,1.9c0.1,0.7,0.4,1.4,0.8,2.1v2.6
	c0,0.1-0.1,0.2-0.1,0.2c-2.8,1.4-5.5,3.1-8,5.1c-0.6,0.5-1,1.3-1,2.1v3.8h27.3v-3.8c0-0.8-0.4-1.6-1-2.1
	C-161.2,417-163.9,415.3-166.6,413.9L-166.6,413.9z M-225,421.1c0-0.8-0.4-1.6-1-2.1c-2.5-2-5.2-3.7-8-5.1c-0.1,0-0.1-0.1-0.1-0.2
	V411c0.4-0.6,0.6-1.4,0.8-2.1c0.3,0,0.7-0.4,1.1-1.9c0.6-2,0-2.3-0.6-2.3c0.1-0.3,0.2-0.5,0.2-0.8c0.9-5.3-1.7-5.4-1.7-5.4
	c-0.4-0.6-0.9-1.1-1.6-1.4c-1-0.6-2.1-0.8-3.2-0.7c-0.4,0-0.9,0.1-1.3,0.2l0,0c-0.5,0.2-1,0.4-1.4,0.7c-0.5,0.3-1,0.7-1.4,1.2
	c-0.8,0.8-1.3,1.7-1.6,2.7c-0.2,0.9-0.2,1.8,0,2.7l0,0c0.1,0.3,0.1,0.6,0.2,0.8c-0.5,0-1.1,0.3-0.6,2.3c0.4,1.5,0.8,1.9,1.1,1.9
	c0.1,0.7,0.4,1.4,0.8,2.1v2.6c0,0.1-0.1,0.2-0.1,0.2c-2.8,1.4-5.5,3.1-8,5.1c-0.6,0.5-1,1.3-1,2.1v3.8h27.3V421.1z"/>
</svg>
